<svg width="650" height="250" xmlns="http://www.w3.org/2000/svg">
  <title>Real World ↔ Digital World Loop</title>
  <desc>Diagram showing the continuous loop between real-world physical interactions and digital-world processing in humanoid robotics</desc>

  <!-- Background -->
  <rect width="100%" height="100%" fill="#f8f9fa"/>

  <!-- Real World -->
  <rect x="50" y="50" width="200" height="150" fill="#e6f7ff" stroke="#1890ff" stroke-width="2" rx="10"/>
  <text x="150" y="80" font-family="Arial, sans-serif" font-size="16" fill="#1890ff" text-anchor="middle" font-weight="bold">
    Real World
  </text>
  <circle cx="100" cy="130" r="20" fill="#1890ff" stroke="#096dd9" stroke-width="2"/>
  <circle cx="200" cy="130" r="20" fill="#1890ff" stroke="#096dd9" stroke-width="2"/>
  <line x1="120" y1="130" x2="180" y2="130" stroke="#096dd9" stroke-width="2"/>
  <text x="150" y="180" font-family="Arial, sans-serif" font-size="12" fill="#096dd9" text-anchor="middle">
    Physical Interaction
  </text>

  <!-- Digital World -->
  <rect x="350" y="50" width="200" height="150" fill="#f6ffed" stroke="#52c41a" stroke-width="2" rx="10"/>
  <text x="450" y="80" font-family="Arial, sans-serif" font-size="16" fill="#52c41a" text-anchor="middle" font-weight="bold">
    Digital World
  </text>
  <rect x="400" y="110" width="100" height="40" fill="#52c41a" stroke="#389e0d" stroke-width="2" rx="5"/>
  <text x="450" y="135" font-family="Arial, sans-serif" font-size="12" fill="white" text-anchor="middle" dominant-baseline="middle">
    Digital Twin
  </text>
  <text x="450" y="180" font-family="Arial, sans-serif" font-size="12" fill="#389e0d" text-anchor="middle">
    Virtual Model
  </text>

  <!-- Arrow from Real to Digital -->
  <path d="M250,125 C280,125 320,125 350,125" fill="none" stroke="#fa8c16" stroke-width="3" stroke-dasharray="5,5" marker-end="url(#arrowhead)"/>
  <text x="300" y="110" font-family="Arial, sans-serif" font-size="12" fill="#fa8c16" text-anchor="middle">
    Sensing
  </text>

  <!-- Arrow from Digital to Real -->
  <path d="M350,150 C320,150 280,150 250,150" fill="none" stroke="#fa8c16" stroke-width="3" stroke-dasharray="5,5" marker-end="url(#arrowhead)"/>
  <text x="300" y="170" font-family="Arial, sans-serif" font-size="12" fill="#fa8c16" text-anchor="middle">
    Actuation
  </text>

  <!-- Loop arrow (feedback) -->
  <path d="M450,150 C480,170 480,200 450,220" fill="none" stroke="#73d13d" stroke-width="2" stroke-dasharray="5,5" marker-end="url(#arrowhead)"/>
  <path d="M450,220 C420,200 420,170 450,150" fill="none" stroke="#73d13d" stroke-width="2" marker-end="url(#arrowhead)"/>

  <!-- Title -->
  <text x="325" y="30" font-family="Arial, sans-serif" font-size="18" fill="#3a3b45" text-anchor="middle" font-weight="bold">
    Real World ↔ Digital World Loop
  </text>

  <!-- Arrowheads definition -->
  <defs>
    <marker id="arrowhead" markerWidth="10" markerHeight="7" refX="9" refY="3.5" orient="auto">
      <polygon points="0 0, 10 3.5, 0 7" fill="#fa8c16"/>
    </marker>
  </defs>
</svg>